<svg xmlns="http://www.w3.org/2000/svg" xmlns:xlink="http://www.w3.org/1999/xlink" width="1320" zoomAndPan="magnify" viewBox="60 265 1320 280" height="280" preserveAspectRatio="xMidYMid meet" version="1.0"><defs><g/><clipPath id="7ef0559349"><path d="M 695.292969 273.898438 L 1373.285156 273.898438 L 1373.285156 536.09375 L 695.292969 536.09375 Z M 695.292969 273.898438 " clip-rule="nonzero"/></clipPath><clipPath id="2eee908812"><path d="M 437 273.898438 L 641 273.898438 L 641 534 L 437 534 Z M 437 273.898438 " clip-rule="nonzero"/></clipPath><clipPath id="267246e339"><path d="M 66.59375 280 L 438 280 L 438 534 L 66.59375 534 Z M 66.59375 280 " clip-rule="nonzero"/></clipPath><clipPath id="5658cece86"><rect x="0" width="585" y="0" height="186"/></clipPath></defs><g clip-path="url(#7ef0559349)"><path stroke-linecap="butt" transform="matrix(0.75, 0, 0, 0.75, 695.286835, 273.899245)" fill="none" stroke-linejoin="miter" d="M 0.00817801 -0.00107723 L 904.148848 -0.00107723 L 904.148848 349.59269 L 0.00817801 349.59269 Z M 0.00817801 -0.00107723 " stroke="#4597ff" stroke-width="10" stroke-opacity="1" stroke-miterlimit="4"/></g><g clip-path="url(#2eee908812)"><path fill="#000000" d="M 640.902344 533.835938 L 437.398438 533.835938 L 500.101562 468.683594 C 516.636719 451.441406 529.597656 436.890625 538.992188 425.027344 C 548.375 412.9375 555.304688 402.75 559.769531 394.460938 C 564.46875 386.183594 567.375 379.460938 568.488281 374.3125 C 569.601562 369.167969 570.164062 364.796875 570.164062 361.21875 C 570.164062 357.410156 569.488281 353.71875 568.152344 350.132812 C 567.082031 346.640625 565.257812 343.429688 562.792969 340.730469 C 560.332031 337.820312 557.230469 335.523438 553.738281 334.015625 C 550.386719 332.21875 546.359375 331.328125 541.667969 331.328125 C 532.726562 331.328125 525.683594 334.242188 520.542969 340.058594 C 515.628906 345.882812 513.175781 353.15625 513.175781 361.882812 C 513.175781 364.347656 513.5 367.933594 514.175781 372.632812 L 442.4375 372.632812 C 442.4375 357.859375 444.777344 344.421875 449.46875 332.332031 C 454.394531 320.242188 461.210938 309.839844 469.921875 301.101562 C 478.640625 292.375 488.921875 285.652344 500.765625 280.949219 C 512.835938 276.25 526.023438 273.898438 540.328125 273.898438 C 554.402344 273.898438 567.375 276.136719 579.21875 280.613281 C 591.289062 285.097656 601.683594 291.363281 610.390625 299.425781 C 619.109375 307.480469 625.925781 317.113281 630.851562 328.304688 C 635.769531 339.28125 638.222656 351.257812 638.222656 364.234375 C 638.222656 378.121094 635.207031 390.996094 629.167969 402.863281 C 623.363281 414.5 613.96875 426.476562 601.007812 438.792969 L 559.105469 478.082031 L 640.902344 478.082031 Z M 640.902344 533.835938 " fill-opacity="1" fill-rule="nonzero"/></g><g clip-path="url(#267246e339)"><path fill="#000000" d="M 276.8125 378.347656 L 371.691406 378.347656 L 371.691406 280.613281 L 437.410156 280.613281 L 437.410156 533.835938 L 371.691406 533.835938 L 371.691406 429.390625 L 276.824219 429.390625 L 276.824219 533.835938 L 211.105469 533.835938 L 211.105469 280.613281 L 276.8125 280.613281 Z M 132.316406 280.613281 L 132.316406 478.082031 L 211.105469 478.082031 L 211.105469 533.835938 L 66.609375 533.835938 L 66.609375 280.613281 Z M 132.316406 280.613281 " fill-opacity="1" fill-rule="nonzero"/></g><g transform="matrix(1, 0, 0, 1, 743, 312)"><g clip-path="url(#5658cece86)"><g fill="#4597ff" fill-opacity="1"><g transform="translate(0.609852, 146.932514)"><g><path d="M 18.078125 0 L 3.921875 0 L 44.859375 -111.484375 L 58.78125 -111.484375 L 99.71875 0 L 85.5625 0 L 74.359375 -31.578125 L 29.28125 -31.578125 Z M 33.53125 -43.546875 L 70.109375 -43.546875 L 52.25 -93.84375 L 51.390625 -93.84375 Z M 33.53125 -43.546875 "/></g></g></g><g fill="#4597ff" fill-opacity="1"><g transform="translate(104.229208, 146.932514)"><g><path d="M 27 -111.484375 L 27 0 L 13.5 0 L 13.5 -111.484375 Z M 27 -111.484375 "/></g></g></g><g fill="#4597ff" fill-opacity="1"><g transform="translate(144.719173, 146.932514)"><g/></g></g><g fill="#4597ff" fill-opacity="1"><g transform="translate(187.821391, 146.932514)"><g><path d="M 13.5 0 L 13.5 -111.484375 L 27 -111.484375 L 27 -11.96875 L 78.8125 -11.96875 L 78.8125 0 Z M 13.5 0 "/></g></g></g><g fill="#4597ff" fill-opacity="1"><g transform="translate(280.992705, 146.932514)"><g><path d="M 18.078125 0 L 3.921875 0 L 44.859375 -111.484375 L 58.78125 -111.484375 L 99.71875 0 L 85.5625 0 L 74.359375 -31.578125 L 29.28125 -31.578125 Z M 33.53125 -43.546875 L 70.109375 -43.546875 L 52.25 -93.84375 L 51.390625 -93.84375 Z M 33.53125 -43.546875 "/></g></g></g><g fill="#4597ff" fill-opacity="1"><g transform="translate(384.612061, 146.932514)"><g><path d="M 13.5 0 L 13.5 -111.484375 L 52.46875 -111.484375 C 60.238281 -111.484375 66.644531 -110.144531 71.6875 -107.46875 C 76.726562 -104.800781 80.484375 -101.226562 82.953125 -96.75 C 85.421875 -92.269531 86.65625 -87.304688 86.65625 -81.859375 C 86.65625 -77.078125 85.8125 -73.125 84.125 -70 C 82.4375 -66.875 80.222656 -64.40625 77.484375 -62.59375 C 74.742188 -60.78125 71.773438 -59.4375 68.578125 -58.5625 L 68.578125 -57.484375 C 71.992188 -57.265625 75.425781 -56.066406 78.875 -53.890625 C 82.320312 -51.710938 85.207031 -48.585938 87.53125 -44.515625 C 89.851562 -40.453125 91.015625 -35.484375 91.015625 -29.609375 C 91.015625 -24.023438 89.742188 -19 87.203125 -14.53125 C 84.660156 -10.070312 80.648438 -6.535156 75.171875 -3.921875 C 69.691406 -1.304688 62.5625 0 53.78125 0 Z M 27 -11.96875 L 53.78125 -11.96875 C 62.59375 -11.96875 68.859375 -13.679688 72.578125 -17.109375 C 76.304688 -20.546875 78.171875 -24.710938 78.171875 -29.609375 C 78.171875 -33.378906 77.207031 -36.867188 75.28125 -40.078125 C 73.351562 -43.296875 70.609375 -45.875 67.046875 -47.8125 C 63.492188 -49.757812 59.289062 -50.734375 54.4375 -50.734375 L 27 -50.734375 Z M 27 -62.484375 L 52.03125 -62.484375 C 58.132812 -62.484375 63.289062 -64.242188 67.5 -67.765625 C 71.707031 -71.285156 73.8125 -75.984375 73.8125 -81.859375 C 73.8125 -86.765625 72.101562 -90.929688 68.6875 -94.359375 C 65.28125 -97.785156 59.875 -99.5 52.46875 -99.5 L 27 -99.5 Z M 27 -62.484375 "/></g></g></g><g fill="#4597ff" fill-opacity="1"><g transform="translate(484.313087, 146.932514)"><g><path d="M 74.46875 -83.609375 C 73.8125 -89.117188 71.160156 -93.398438 66.515625 -96.453125 C 61.867188 -99.503906 56.171875 -101.03125 49.421875 -101.03125 C 42.015625 -101.03125 36.0625 -99.273438 31.5625 -95.765625 C 27.070312 -92.265625 24.828125 -87.847656 24.828125 -82.515625 C 24.828125 -78.523438 26.050781 -75.304688 28.5 -72.859375 C 30.945312 -70.410156 33.847656 -68.503906 37.203125 -67.140625 C 40.554688 -65.773438 43.613281 -64.734375 46.375 -64.015625 L 57.703125 -60.96875 C 60.597656 -60.207031 63.832031 -59.15625 67.40625 -57.8125 C 70.988281 -56.46875 74.421875 -54.640625 77.703125 -52.328125 C 80.984375 -50.023438 83.691406 -47.078125 85.828125 -43.484375 C 87.972656 -39.898438 89.046875 -35.492188 89.046875 -30.265625 C 89.046875 -24.242188 87.476562 -18.800781 84.34375 -13.9375 C 81.207031 -9.070312 76.632812 -5.207031 70.625 -2.34375 C 64.625 0.519531 57.335938 1.953125 48.765625 1.953125 C 36.796875 1.953125 27.289062 -0.875 20.25 -6.53125 C 13.207031 -12.1875 9.359375 -19.585938 8.703125 -28.734375 L 22.640625 -28.734375 C 23.003906 -24.523438 24.425781 -21.050781 26.90625 -18.3125 C 29.394531 -15.570312 32.550781 -13.539062 36.375 -12.21875 C 40.207031 -10.894531 44.335938 -10.234375 48.765625 -10.234375 C 53.921875 -10.234375 58.546875 -11.078125 62.640625 -12.765625 C 66.742188 -14.453125 69.992188 -16.8125 72.390625 -19.84375 C 74.785156 -22.875 75.984375 -26.421875 75.984375 -30.484375 C 75.984375 -34.179688 74.945312 -37.191406 72.875 -39.515625 C 70.8125 -41.835938 68.09375 -43.722656 64.71875 -45.171875 C 61.34375 -46.628906 57.695312 -47.898438 53.78125 -48.984375 L 40.0625 -52.90625 C 31.351562 -55.40625 24.457031 -58.976562 19.375 -63.625 C 14.289062 -68.269531 11.75 -74.347656 11.75 -81.859375 C 11.75 -88.109375 13.445312 -93.5625 16.84375 -98.21875 C 20.238281 -102.882812 24.8125 -106.515625 30.5625 -109.109375 C 36.3125 -111.703125 42.742188 -113 49.859375 -113 C 57.046875 -113 63.429688 -111.71875 69.015625 -109.15625 C 74.609375 -106.601562 79.046875 -103.113281 82.328125 -98.6875 C 85.609375 -94.257812 87.34375 -89.234375 87.53125 -83.609375 Z M 74.46875 -83.609375 "/></g></g></g></g></g></svg>